<?xml version="1.0" encoding="UTF-8"?>
<svg xmlns="http://www.w3.org/2000/svg" xmlns:xlink="http://www.w3.org/1999/xlink" width="512" height="512" viewBox="0 0 58 58" version="1.1"><!-- Generator: Sketch 51.3 (57544) - http://www.bohemiancoding.com/sketch --><title>021 - Buddhism</title><desc>Created with Sketch.</desc><defs/><g id="Page-1" stroke="none" stroke-width="1" fill="none" fill-rule="evenodd"><g id="021---Buddhism" fill="#000000" fill-rule="nonzero"><circle id="Oval" cx="29" cy="3" r="3"/><path d="M8.494,8.494 C7.32257313,9.66562532 7.32268037,11.5650279 8.49423955,12.7365209 C9.66579872,13.9080139 11.5652013,13.9080139 12.7367605,12.7365209 C13.9083196,11.5650279 13.9084269,9.66562532 12.737,8.494 C12.1743763,7.93128095 11.4112375,7.61514067 10.6155,7.61514067 C9.81976248,7.61514067 9.05662374,7.93128095 8.494,8.494 Z" id="Shape"/><circle id="Oval" cx="3" cy="29" r="3"/><path d="M8.494,45.263 C7.32257313,46.4346253 7.32268037,48.3340279 8.49423955,49.5055209 C9.66579872,50.6770139 11.5652013,50.6770139 12.7367605,49.5055209 C13.9083196,48.3340279 13.9084269,46.4346253 12.737,45.263 C12.1743763,44.700281 11.4112375,44.3841407 10.6155,44.3841407 C9.81976248,44.3841407 9.05662374,44.700281 8.494,45.263 Z" id="Shape"/><circle id="Oval" cx="29" cy="55" r="3"/><path d="M45.263,45.263 C44.0915731,46.4346253 44.0916804,48.3340279 45.2632395,49.5055209 C46.4347987,50.6770139 48.3342013,50.6770139 49.5057605,49.5055209 C50.6773196,48.3340279 50.6774269,46.4346253 49.506,45.263 C48.9433763,44.700281 48.1802375,44.3841407 47.3845,44.3841407 C46.5887625,44.3841407 45.8256237,44.700281 45.263,45.263 Z" id="Shape"/><circle id="Oval" cx="55" cy="29" r="3"/><path d="M45.263,8.494 C44.0915731,9.66562532 44.0916804,11.5650279 45.2632395,12.7365209 C46.4347987,13.9080139 48.3342013,13.9080139 49.5057605,12.7365209 C50.6773196,11.5650279 50.6774269,9.66562532 49.506,8.494 C48.9433763,7.93128095 48.1802375,7.61514067 47.3845,7.61514067 C46.5887625,7.61514067 45.8256237,7.93128095 45.263,8.494 Z" id="Shape"/><path d="M20,22.56 C21.3608692,22.9668305 22.6748554,23.5165594 23.92,24.2 C24.0082685,24.1017357 24.1017357,24.0082685 24.2,23.92 C23.5165594,22.6748554 22.9668305,21.3608692 22.56,20 C20.42,19.48 18.58,16.95 17.51,15.16 C16.6582292,15.8717681 15.8717681,16.6582292 15.16,17.51 C16.95,18.58 19.48,20.42 20,22.56 Z" id="Shape"/><path d="M38,22.56 C38.52,20.42 41.05,18.58 42.84,17.51 C42.1282319,16.6582292 41.3417708,15.8717681 40.49,15.16 C39.42,16.95 37.58,19.48 35.44,20 C35.0331695,21.3608692 34.4834406,22.6748554 33.8,23.92 C33.8982643,24.0082685 33.9917315,24.1017357 34.08,24.2 C35.3251446,23.5165594 36.6391308,22.9668305 38,22.56 Z" id="Shape"/><path d="M29.2,35.99 C29.13,35.99 29.07,36 29,36 C28.93,36 28.87,35.99 28.8,35.99 C28.4044885,37.3534817 27.8647733,38.6709232 27.19,39.92 C28.34,41.8 27.85,44.89 27.34,46.92 C27.89,46.97 28.44,47 29,47 C29.56,47 30.11,46.97 30.66,46.92 C30.15,44.89 29.66,41.8 30.81,39.92 C30.1352267,38.6709232 29.5955115,37.3534817 29.2,35.99 Z" id="Shape"/><path d="M20,35.44 C19.48,37.58 16.95,39.42 15.16,40.49 C15.8717681,41.3417708 16.6582292,42.1282319 17.51,42.84 C18.58,41.05 20.42,38.52 22.56,38 C22.9668305,36.6391308 23.5165594,35.3251446 24.2,34.08 C24.1017357,33.9917315 24.0082685,33.8982643 23.92,33.8 C22.6748554,34.4834406 21.3608692,35.0331695 20,35.44 Z" id="Shape"/><path d="M22.01,29.2 C22.01,29.13 22,29.07 22,29 C22,28.93 22.01,28.87 22.01,28.81 C20.6474837,28.4074126 19.3304284,27.8645044 18.08,27.19 C16.2,28.34 13.11,27.85 11.08,27.34 C11.03,27.89 11,28.44 11,29 C11,29.56 11.03,30.11 11.08,30.66 C13.11,30.15 16.2,29.66 18.08,30.81 C19.3290768,30.1352267 20.6465183,29.5955115 22.01,29.2 Z" id="Shape"/><circle id="Oval" cx="29" cy="29" r="1"/><path d="M35.99,28.8 C35.99,28.87 36,28.93 36,29 C36,29.07 35.99,29.13 35.99,29.2 C37.3534817,29.5955115 38.6709232,30.1352267 39.92,30.81 C41.8,29.67 44.89,30.15 46.92,30.66 C46.97,30.11 47,29.56 47,29 C47,28.44 46.97,27.89 46.92,27.34 C44.89,27.85 41.8,28.34 39.92,27.19 C38.6709232,27.8647733 37.3534817,28.4044885 35.99,28.8 Z" id="Shape"/><path d="M29,7 C16.8497355,7 7,16.8497355 7,29 C7,41.1502645 16.8497355,51 29,51 C41.1502645,51 51,41.1502645 51,29 C50.985673,16.8556749 41.1443251,7.014327 29,7 Z M45.22,17.34 C45.23,17.35 45.23,17.35 45.23,17.36 C47.0227394,19.8501814 48.213909,22.7219954 48.71,25.75 C48.72,25.76 48.72,25.77 48.73,25.78 C48.7435555,25.84238 48.7469324,25.9065417 48.74,25.97 C49.0866583,27.9751272 49.0866583,30.0248728 48.74,32.03 C48.7469324,32.0934583 48.7435555,32.15762 48.73,32.22 C48.72,32.23 48.72,32.24 48.71,32.25 C48.213909,35.2780046 47.0227394,38.1498186 45.23,40.64 C45.23,40.65 45.23,40.65 45.22,40.66 C45.1689479,40.7519906 45.1049628,40.8361816 45.03,40.91 C43.8194576,42.5322541 42.3735226,43.9647071 40.74,45.16 C40.71,45.18 40.69,45.21 40.66,45.22 C40.65,45.23 40.65,45.23 40.64,45.23 C38.1498186,47.0227394 35.2780046,48.213909 32.25,48.71 C32.24,48.72 32.23,48.72 32.22,48.73 C32.1260694,48.7586424 32.0281771,48.7721448 31.93,48.77 L31.9,48.77 C30.9397141,48.9127507 29.9707824,48.989597 29,49 C28.0292176,48.989597 27.0602859,48.9127507 26.1,48.77 L26.07,48.77 C25.9718229,48.7721448 25.8739306,48.7586424 25.78,48.73 C25.77,48.72 25.76,48.72 25.75,48.71 C22.7219954,48.213909 19.8501814,47.0227394 17.36,45.23 C17.35,45.23 17.35,45.23 17.34,45.22 C17.31,45.21 17.29,45.18 17.26,45.16 C15.6264774,43.9647071 14.1805424,42.5322541 12.97,40.91 C12.8950372,40.8361816 12.8310521,40.7519906 12.78,40.66 C12.77,40.65 12.77,40.65 12.77,40.64 C10.9772606,38.1498186 9.78609103,35.2780046 9.29,32.25 C9.28,32.24 9.28,32.23 9.27,32.22 C9.25644455,32.15762 9.25306761,32.0934583 9.26,32.03 C8.9133417,30.0248728 8.9133417,27.9751272 9.26,25.97 C9.25306761,25.9065417 9.25644455,25.84238 9.27,25.78 C9.28,25.77 9.28,25.76 9.29,25.75 C9.78609103,22.7219954 10.9772606,19.8501814 12.77,17.36 C12.77,17.35 12.77,17.35 12.78,17.34 C12.79,17.31 12.82,17.29 12.84,17.26 C14.0797433,15.570257 15.570257,14.0797433 17.26,12.84 C17.29,12.82 17.31,12.79 17.34,12.78 C17.35,12.77 17.35,12.77 17.36,12.77 C19.8501814,10.9772606 22.7219954,9.78609103 25.75,9.29 C25.76,9.28 25.77,9.28 25.78,9.27 C25.8396196,9.26168837 25.8998266,9.25834354 25.96,9.26 C27.9718382,8.91328798 30.0281618,8.91328798 32.04,9.26 C32.1001734,9.25834354 32.1603804,9.26168837 32.22,9.27 C32.23,9.28 32.24,9.28 32.25,9.29 C35.2780046,9.78609103 38.1498186,10.9772606 40.64,12.77 C40.65,12.77 40.65,12.77 40.66,12.78 C40.69,12.79 40.71,12.82 40.74,12.84 C42.429743,14.0797433 43.9202567,15.570257 45.16,17.26 C45.18,17.29 45.21,17.31 45.22,17.34 Z" id="Shape"/><path d="M29,24 C26.2385763,24 24,26.2385763 24,29 C24,31.7614237 26.2385763,34 29,34 C31.7614237,34 34,31.7614237 34,29 C34,26.2385763 31.7614237,24 29,24 Z M29,32 C27.3431458,32 26,30.6568542 26,29 C26,27.3431458 27.3431458,26 29,26 C30.6568542,26 32,27.3431458 32,29 C31.9950578,30.6548028 30.6548028,31.9950578 29,32 Z" id="Shape"/><path d="M38,35.44 C36.6391308,35.0331695 35.3251446,34.4834406 34.08,33.8 C33.9917315,33.8982643 33.8982643,33.9917315 33.8,34.08 C34.4834406,35.3251446 35.0331695,36.6391308 35.44,38 C37.58,38.52 39.42,41.05 40.49,42.84 C41.3417708,42.1282319 42.1282319,41.3417708 42.84,40.49 C41.05,39.42 38.52,37.58 38,35.44 Z" id="Shape"/><path d="M28.8,22.01 C28.87,22.01 28.93,22 29,22 C29.07,22 29.13,22.01 29.2,22.01 C29.5955115,20.6465183 30.1352267,19.3290768 30.81,18.08 C29.66,16.2 30.15,13.11 30.66,11.08 C30.11,11.03 29.56,11 29,11 C28.44,11 27.89,11.03 27.34,11.08 C27.85,13.11 28.34,16.2 27.19,18.08 C27.8647733,19.3290768 28.4044885,20.6465183 28.8,22.01 Z" id="Shape"/></g></g></svg>
