<svg id="Capa_1" enable-background="new 0 0 512 512" height="512" viewBox="0 0 512 512" width="512" xmlns="http://www.w3.org/2000/svg"><path d="m136 152c-8.291 0-15 6.709-15 15 0 36.81 26.71 67.355 61.732 73.658-.037.45-.121.892-.157 1.342h146.851c-.037-.45-.121-.892-.157-1.342 35.021-6.303 61.731-36.848 61.731-73.658 0-8.291-6.709-15-15-15s-15 6.709-15 15c0 21.531-15.214 39.531-35.447 43.931-1.465-8.681-3.201-17.311-5.535-25.812-16.332 16.561-38.975 26.881-64.018 26.881s-47.686-10.32-64.017-26.882c-2.335 8.502-4.07 17.131-5.535 25.812-20.234-4.399-35.448-22.399-35.448-43.93 0-8.291-6.709-15-15-15z"/><path d="m321.665 466.577c-9.492-9.06-21.987-14.577-35.665-14.577h-60c-13.678 0-26.173 5.517-35.665 14.577l-8.558 25.677c-1.538 4.57-.762 9.609 2.051 13.521 2.826 3.911 7.353 6.225 12.172 6.225h120c4.819 0 9.346-2.314 12.173-6.226 2.813-3.911 3.589-8.95 2.051-13.521z"/><path d="m328.188 6.255c-2.814-3.926-7.354-6.255-12.188-6.255h-120c-4.834 0-9.376 2.329-12.188 6.255-2.813 3.926-3.574 8.979-2.021 13.55l18.693 57.195h111.031l18.693-57.195c1.554-4.571.792-9.624-2.02-13.55z"/><path d="m196 122c0 33.091 26.909 60 60 60s60-26.909 60-60c0-5.125-.842-10.131-2.111-15h-115.778c-1.269 4.869-2.111 9.875-2.111 15z"/><path d="m211 347c0 24.814 20.186 45 45 45s45-20.186 45-45-20.186-45-45-45-45 20.186-45 45z"/><path d="m328.23 327.908c38.895-7.806 73.965-27.449 100.838-55.908h-173.068c34.715 0 63.723 23.831 72.23 55.908z"/><path d="m183.791 327.845c8.529-32.045 37.518-55.845 72.209-55.845h-173.384c26.647 28.519 61.525 48.023 101.175 55.845z"/><path d="m182.11 357.968c-55.758-10.051-104.484-41.155-137.694-85.968h-29.416c-8.291 0-15 6.709-15 15 0 74.443 61.557 135 136 135h13.938c-19.221 17.875-25.188 34.698-27.356 38.291-3.706 7.412-.703 16.421 6.709 20.127 7.487 3.717 16.439.645 20.127-6.709 2.628-3.001 19.29-51.709 76.58-51.709h30.002c-37.597 0-68.529-27.902-73.89-64.032z"/><path d="m497 272h-28.839c-33.298 45.082-82.599 76.029-138.279 86.056-5.401 36.086-36.316 63.944-73.882 63.944h29.996c57.325 0 73.934 48.688 76.58 51.709 3.691 7.361 12.647 10.422 20.127 6.709 7.412-3.706 10.415-12.715 6.709-20.127-2.175-3.604-8.121-20.402-27.356-38.291h13.944c74.443 0 136-60.557 136-135 0-8.291-6.709-15-15-15z"/></svg>