<svg id="Capa_1" enable-background="new 0 0 512 512" height="512" viewBox="0 0 512 512" width="512" xmlns="http://www.w3.org/2000/svg"><g><path d="m400.59 256 71.78-127.088h-143.56l-72.81-128.912-72.81 128.912h-143.56l71.78 127.088-71.78 127.089h143.56l72.81 128.911 72.81-128.911h143.56zm20.373-97.08-37.603 66.576-37.603-66.576zm-54.831 97.08-54.831 97.08h-110.603l-54.831-97.08 54.831-97.08h110.603zm-110.132-194.993 38.353 67.905h-76.706zm-164.963 97.913h75.204l-37.602 66.576zm0 194.16 37.602-66.576 37.602 66.576zm164.963 97.913-38.353-67.905h76.706zm127.361-164.489 37.603 66.576h-75.205z"/></g></svg>