<svg id="Capa_1" enable-background="new 0 0 512 512" height="512" viewBox="0 0 512 512" width="512" xmlns="http://www.w3.org/2000/svg"><g><path d="m271 15c0-8.291-6.709-15-15-15s-15 6.709-15 15v31c0 8.291 6.709 15 15 15s15-6.709 15-15z"/><path d="m106 181h-30c-8.291 0-15 6.709-15 15s6.709 15 15 15h30c8.291 0 15-6.709 15-15s-6.709-15-15-15z"/><path d="m406 211h30c8.291 0 15-6.709 15-15s-6.709-15-15-15h-30c-8.291 0-15 6.709-15 15s6.709 15 15 15z"/><path d="m160.595 100.595c5.859-5.859 5.859-15.352 0-21.211l-21.27-21.27c-5.859-5.859-15.352-5.859-21.211 0s-5.859 15.352 0 21.211l21.27 21.27c5.859 5.859 15.351 5.859 21.211 0z"/><path d="m372.675 58.114-21.27 21.27c-5.859 5.859-5.859 15.352 0 21.211s15.352 5.859 21.211 0l21.27-21.27c5.859-5.859 5.859-15.352 0-21.211s-15.352-5.859-21.211 0z"/><path d="m391 420.121v-146.323c0-1.846-.337-3.677-1.011-5.391l-60.981-158.203c-4.439-11.484-15.703-19.204-28.008-19.204-16.538 0-30 13.462-30 30v122.763c4.715-1.681 9.716-2.763 15-2.763 24.814 0 45 20.186 45 45v75c0 8.291-6.709 15-15 15s-15-6.709-15-15v-75c0-8.276-6.724-15-15-15s-15 6.724-15 15v40.063c0 64.058 19.16 126.757 55.4 179.433 2.798 4.072 7.427 6.504 12.363 6.504h127.234c6.343 0 11.982-3.984 14.121-9.946s.293-12.627-4.6-16.641z"/><path d="m211 91c-12.305 0-23.569 7.72-28.008 19.204l-60.981 158.203c-.674 1.714-1.011 3.545-1.011 5.391v146.323l-84.52 65.292c-4.893 4.014-6.738 10.679-4.6 16.641s7.779 9.946 14.122 9.946h127.234c4.937 0 9.565-2.432 12.363-6.504 36.241-52.676 55.401-115.375 55.401-179.433v-40.063c0-8.276-6.724-15-15-15s-15 6.724-15 15v75c0 8.291-6.709 15-15 15s-15-6.709-15-15v-75c0-24.814 20.186-45 45-45 5.284 0 10.285 1.082 15 2.763v-122.763c0-16.538-13.462-30-30-30z"/></g></svg>