<?xml version="1.0" encoding="iso-8859-1"?>
<!-- Generator: Adobe Illustrator 19.0.0, SVG Export Plug-In . SVG Version: 6.00 Build 0)  -->
<svg version="1.1" id="Capa_1" xmlns="http://www.w3.org/2000/svg" xmlns:xlink="http://www.w3.org/1999/xlink" x="0px" y="0px"
	 viewBox="0 0 60 60" style="enable-background:new 0 0 60 60;" xml:space="preserve">
<g>
	<path d="M59.5,30C59.5,13.708,46.292,0.296,30,0.015V0h-0.5v0.028c-0.353,0.011-0.703,0.03-1.05,0.065l-0.001-0.016
		C12.776,1.137,0.5,14.281,0.5,30c0,16.132,12.951,29.432,29,29.965V60H30h0.5v-0.024l0.036-0.002l0-0.005
		c0.013,0,0.026-0.003,0.039-0.003l0,0.007l0.13-0.004c0.284-0.009,0.567-0.02,0.846-0.047l0,0.001
		c0.008-0.001,0.016-0.002,0.024-0.002c0.001,0,0.002,0,0.003,0v0C47.238,58.846,59.5,45.71,59.5,30z M23.5,45c0-3.86,3.14-7,7-7
		s7,3.14,7,7s-3.14,7-7,7S23.5,48.86,23.5,45z M40.867,55.58c2.526-2.478,4.188-5.815,4.555-9.526
		c0.052-0.511,0.079-1.03,0.079-1.554C45.5,35.953,38.547,29,30,29c-7.444,0-13.5-6.056-13.5-13.5c0-0.454,0.024-0.903,0.068-1.346
		c0.005-0.05,0.015-0.098,0.021-0.147c0.745-6.663,6.401-11.92,13.233-11.999C45.083,2.181,57.5,14.738,57.5,30
		C57.5,41.311,50.689,51.193,40.867,55.58z"/>
	<path d="M30.5,8c-3.86,0-7,3.14-7,7s3.14,7,7,7s7-3.14,7-7S34.36,8,30.5,8z"/>
</g>
<g>
</g>
<g>
</g>
<g>
</g>
<g>
</g>
<g>
</g>
<g>
</g>
<g>
</g>
<g>
</g>
<g>
</g>
<g>
</g>
<g>
</g>
<g>
</g>
<g>
</g>
<g>
</g>
<g>
</g>
</svg>
